HIERARCHY
ROOT Hips
{
	OFFSET 0.00000 0.00000 0.00000
	CHANNELS 6 Xposition Yposition Zposition Zrotation Yrotation Xrotation 
	JOINT LHipJoint
	{
		OFFSET 0 0 0
		CHANNELS 3 Zrotation Yrotation Xrotation
		JOINT LeftUpLeg
		{
			OFFSET 1.81638 -1.86202 0.89635
			CHANNELS 3 Zrotation Yrotation Xrotation
			JOINT LeftLeg
			{
				OFFSET 2.63464 -7.23861 0.00000
				CHANNELS 3 Zrotation Yrotation Xrotation
				JOINT LeftFoot
				{
					OFFSET 2.45871 -6.75336 0.00000
					CHANNELS 3 Zrotation Yrotation Xrotation
					JOINT LeftToeBase
					{
						OFFSET 0.34235 -0.94059 2.20020
						CHANNELS 3 Zrotation Yrotation Xrotation
						End Site
						{
							OFFSET 0.00000 -0.00000 1.18611
						}
					}
				}
			}
		}
	}
	JOINT RHipJoint
	{
		OFFSET 0 0 0
		CHANNELS 3 Zrotation Yrotation Xrotation
		JOINT RightUpLeg
		{
			OFFSET -1.84405 -1.86203 0.89635
			CHANNELS 3 Zrotation Yrotation Xrotation
			JOINT RightLeg
			{
				OFFSET -2.71067 -7.44751 0.00000
				CHANNELS 3 Zrotation Yrotation Xrotation
				JOINT RightFoot
				{
					OFFSET -2.47159 -6.79060 0.00000
					CHANNELS 3 Zrotation Yrotation Xrotation
					JOINT RightToeBase
					{
						OFFSET -0.26223 -0.72048 2.36007
						CHANNELS 3 Zrotation Yrotation Xrotation
						End Site
						{
							OFFSET -0.00000 -0.00000 1.23343
						}
					}
				}
			}
		}
	}
	JOINT LowerBack
	{
		OFFSET 0 0 0
		CHANNELS 3 Zrotation Yrotation Xrotation
		JOINT Spine
		{
			OFFSET 0.02089 1.99248 -0.22512
			CHANNELS 3 Zrotation Yrotation Xrotation
			JOINT Spine1
			{
				OFFSET 0.01476 2.01356 -0.03079
				CHANNELS 3 Zrotation Yrotation Xrotation
				JOINT Neck
				{
					OFFSET 0 0 0
					CHANNELS 3 Zrotation Yrotation Xrotation
					JOINT Neck1
					{
						OFFSET 0.04846 1.65098 0.06663
						CHANNELS 3 Zrotation Yrotation Xrotation
						JOINT Head
						{
							OFFSET -0.06061 1.60634 -0.07565
							CHANNELS 3 Zrotation Yrotation Xrotation
							End Site
							{
								OFFSET -0.02954 1.73562 -0.03642
							}
						}
					}
				}
				JOINT LeftShoulder
				{
					OFFSET 0 0 0
					CHANNELS 3 Zrotation Yrotation Xrotation
					JOINT LeftArm
					{
						OFFSET 3.45234 1.47051 -0.06993
						CHANNELS 3 Zrotation Yrotation Xrotation
						JOINT LeftForeArm
						{
							OFFSET 5.49313 -0.00000 0.00000
							CHANNELS 3 Zrotation Yrotation Xrotation
							JOINT LeftHand
							{
								OFFSET 3.29037 -0.00000 0.00000
								CHANNELS 3 Zrotation Yrotation Xrotation
								JOINT LeftFingerBase
								{
									OFFSET 0 0 0
									CHANNELS 3 Zrotation Yrotation Xrotation
									JOINT LeftHandIndex1
									{
										OFFSET 0.72966 -0.00000 0.00000
										CHANNELS 3 Zrotation Yrotation Xrotation
										End Site
										{
											OFFSET 0.58827 -0.00000 0.00000
										}
									}
								}
								JOINT LThumb
								{
									OFFSET 0 0 0
									CHANNELS 3 Zrotation Yrotation Xrotation
									End Site
									{
										OFFSET 0.59725 -0.00000 0.59725
									}
								}
							}
						}
					}
				}
				JOINT RightShoulder
				{
					OFFSET 0 0 0
					CHANNELS 3 Zrotation Yrotation Xrotation
					JOINT RightArm
					{
						OFFSET -3.41935 1.44327 0.20453
						CHANNELS 3 Zrotation Yrotation Xrotation
						JOINT RightForeArm
						{
							OFFSET -5.23684 -0.00000 0.00000
							CHANNELS 3 Zrotation Yrotation Xrotation
							JOINT RightHand
							{
								OFFSET -3.38251 -0.00000 0.00000
								CHANNELS 3 Zrotation Yrotation Xrotation
								JOINT RightFingerBase
								{
									OFFSET 0 0 0
									CHANNELS 3 Zrotation Yrotation Xrotation
									JOINT RightHandIndex1
									{
										OFFSET -0.69145 -0.00000 0.00000
										CHANNELS 3 Zrotation Yrotation Xrotation
										End Site
										{
											OFFSET -0.55747 -0.00000 0.00000
										}
									}
								}
								JOINT RThumb
								{
									OFFSET 0 0 0
									CHANNELS 3 Zrotation Yrotation Xrotation
									End Site
									{
										OFFSET -0.56598 -0.00000 0.56598
									}
								}
							}
						}
					}
				}
			}
		}
	}
}
MOTION
Frames: 11
Frame Time: 0.0833333
0.00 0.00 0.00 0 0 0 0 0 0 -21 0 0 0 0 0 0 0 0 0 0 0 0 0 0 21 0 0 0 0 0 0 0 0 0 0 0 0 0 0 0 0 0 0 0 0 0 0 -16 0 0 21 0 0 11 0 0 0 -8 0 0 0 0 0 0 0 0 0 0 0 0 0 0 0 0 0 0 0 0 8 0 0 0 0 0 0 0 0 0 0 0 0 0 0 0 0 0
0.00 0.00 0.00 -21.6695 77.4551 -15.5130 0.0000 0.0000 0.0000 -9.4472 -13.7619 -18.7867 4.4754 12.7674 38.5040 1.2177 -21.2421 -23.1668 0.0181 0.8684 2.3869 0.0000 0.0000 0.0000 22.3734 9.6921 4.3538 -2.2829 -9.4321 27.1565 -0.6446 13.5609 -16.0531 -2.2931 9.4517 -27.2188 -1.8427 2.0258 16.8183 -0.6305 2.5581 5.1456 -0.1370 1.3616 -3.9704 5.8201 2.0321 -1.4499 -2.4427 2.8174 -10.8230 -1.8775 1.3460 -3.1194 0.0000 -0.0000 0.0000 -71.5042 13.6251 35.3106 26.8262 -38.0129 -9.3919 -0.0000 0.0000 -0.6595 -0.9981 7.9574 -0.1382 -7.1250 0.0000 -0.0000 -23.2820 36.9399 4.9501 0.0000 -0.0000 0.0000 77.2703 -15.2894 41.0144 -26.5535 37.7501 -9.2245 0.0000 -0.0000 -3.2435 -11.2285 -15.8977 3.1126 7.1250 -0.0000 -0.0000 15.3823 -45.5904 -0.2296
0.00 0.00 0.00 -19.3626 76.7533 -13.0635 0.0000 0.0000 0.0000 -10.9141 -12.9444 -17.1171 4.4096 12.6864 38.2057 1.4517 -21.3029 -24.5580 0.0353 1.2131 3.3353 0.0000 0.0000 0.0000 19.8670 10.2759 -3.3025 -5.0964 -13.4915 41.2374 0.5487 18.1986 -6.9741 -1.5121 7.7657 -22.0047 -2.8357 1.9474 17.6627 -1.6052 2.2219 5.1210 -0.5700 1.2089 -4.4324 6.1239 2.4458 -3.0915 -1.7872 3.2266 -7.2998 -1.6176 1.5461 -1.6381 0.0000 -0.0000 0.0000 -70.2636 9.0396 36.8175 27.7330 -38.8692 -9.9557 -0.0000 0.0000 -0.1101 -0.5659 7.9287 -0.0781 -7.1250 0.0000 -0.0000 -22.9302 36.9443 4.8619 0.0000 -0.0000 0.0000 77.8758 -15.4896 40.3636 -26.5010 37.6992 -9.1923 0.0000 -0.0000 -4.5705 -12.9178 -15.3982 3.4850 7.1250 -0.0000 -0.0000 13.7009 -45.3035 -0.1046
0.00 0.00 0.00 -10.3060 76.9968 -4.7162 0.0000 0.0000 0.0000 -14.6626 -11.1197 -13.9546 4.1392 12.3434 36.9577 1.5824 -22.4875 -25.7533 0.0478 1.4105 3.8790 0.0000 0.0000 0.0000 15.3754 11.2780 -12.4215 -9.1755 -16.9193 56.6950 1.2507 22.3761 -3.7914 -0.6618 5.2028 -14.4879 -5.3808 1.7379 18.7768 -2.7478 1.4692 5.7748 -0.2090 0.8730 -4.3222 6.0866 2.6794 -3.3320 -1.0225 3.5381 -6.3619 -1.3443 1.7024 -1.2962 0.0000 -0.0000 0.0000 -67.9873 2.2547 40.1935 30.4764 -41.2982 -11.7228 -0.0000 0.0000 -1.1161 1.6822 8.1214 0.2377 -7.1250 0.0000 -0.0000 -21.1853 37.2820 4.2587 0.0000 -0.0000 0.0000 78.4000 -16.1992 39.6050 -26.0585 37.2664 -8.9231 0.0000 -0.0000 -5.2623 -12.5735 -14.7999 3.2609 7.1250 -0.0000 -0.0000 13.8319 -44.6715 0.1144
0.00 0.00 0.00 -18.6464 76.9904 -10.1910 0.0000 0.0000 0.0000 -14.2152 -8.0306 -2.6906 1.8727 8.5956 24.5384 0.7302 -24.5157 -21.8767 0.1279 2.3057 6.3513 0.0000 0.0000 0.0000 16.7101 19.4784 -24.0654 -5.2820 -13.6945 42.0273 0.6948 23.5968 -11.2776 -0.2374 3.1355 -8.6561 -4.0723 -0.2779 17.5154 0.2516 -0.8701 4.3652 2.7582 -0.3071 -5.0534 7.6511 2.9859 -3.0853 -5.4670 3.7240 -3.8070 -3.0605 1.8121 -0.4083 -0.0000 0.0000 0.0000 -66.8793 3.0810 40.2658 48.7724 -52.4882 -25.1970 -0.0000 0.0000 -7.0157 7.6635 11.2123 1.4987 -7.1250 0.0000 -0.0000 -17.0921 40.6781 1.8842 -0.0000 0.0000 0.0000 76.6261 -19.9499 37.8229 -22.3331 33.3514 -6.7680 0.0000 0.0000 3.9167 -5.0480 -16.9992 1.4793 7.1250 -0.0000 -0.0000 21.3073 -45.8854 -0.4878
0.00 0.00 0.00 -15.1064 78.1053 -7.3390 0.0000 0.0000 0.0000 -13.8343 -5.0960 2.6674 2.0439 8.9569 25.6606 -2.7348 -32.9202 -6.7340 0.1330 2.3504 6.4749 0.0000 0.0000 0.0000 18.7882 23.1956 -18.2329 -2.9947 -10.6864 31.2294 -0.4058 14.0551 -14.1126 -0.0022 0.3027 -0.8316 -2.5494 -1.0158 15.3997 2.3996 -1.4582 3.3290 4.2637 -0.6163 -4.9574 11.6934 3.3272 -2.5719 -12.9892 4.4312 1.9888 -5.7436 2.1298 1.5662 -0.0000 0.0000 0.0000 -69.5751 14.6866 39.0916 61.0233 -56.5765 -35.1939 -0.0000 0.0000 -9.1798 8.8328 7.2607 1.1251 -7.1250 0.0000 -0.0000 -15.1441 36.9370 3.0910 -0.0000 0.0000 0.0000 75.4292 -22.6546 38.1633 -25.5573 36.7682 -8.6213 0.0000 -0.0000 -2.1206 2.6049 -18.3946 -0.8225 7.1250 -0.0000 -0.0000 28.6092 -46.1897 -0.9147
0.00 0.00 0.00 -13.6390 80.1936 -8.1848 0.0000 0.0000 0.0000 -12.4167 -4.3948 -1.0384 4.5131 12.8135 38.6743 -4.8599 -36.2502 7.2591 0.0107 0.6680 1.8358 0.0000 0.0000 0.0000 20.3470 21.8229 -14.1373 -3.8255 -11.9245 35.4654 -0.9211 13.7139 -18.3735 -0.0013 -0.2318 0.6369 -0.6929 -0.7055 16.4030 2.9858 -0.6717 3.7364 3.6934 -0.2315 -5.1574 12.9809 2.5871 -1.9283 -15.4252 3.6276 2.6534 -6.7753 1.7373 1.6188 -0.0000 -0.0000 0.0000 -71.0276 17.4223 39.7781 54.9021 -54.7909 -30.1360 -0.0000 0.0000 -8.6072 8.0258 7.6539 1.0759 -7.1250 0.0000 -0.0000 -15.8953 37.2677 3.1207 -0.0000 -0.0000 0.0000 77.0553 -23.1620 35.9285 -26.7415 37.9316 -9.3398 0.0000 -0.0000 -4.8411 0.1689 -17.2486 -0.0501 7.1250 -0.0000 -0.0000 25.9767 -45.4743 -0.3265
0.00 0.00 0.00 -30.7079 79.7042 -26.7871 0.0000 0.0000 0.0000 -7.0350 -4.3923 -7.3372 8.6227 16.5587 54.7759 -4.4938 -35.4194 5.2885 0.2341 -3.1140 -8.5963 0.0000 0.0000 0.0000 25.7831 20.4019 -9.2684 -4.0659 -12.2475 36.6134 -1.4914 12.9352 -22.3463 -0.0055 0.4782 -1.3141 3.7580 -0.3534 17.5310 4.7081 0.7937 4.5913 2.6973 0.4957 -4.9227 13.9592 2.3106 -1.2712 -17.4758 3.2492 1.2766 -7.6344 1.5898 1.1098 0.0000 -0.0000 0.0000 -73.8302 20.6591 39.9454 45.0059 -50.7714 -22.2434 -0.0000 0.0000 -4.5126 10.5290 10.0321 1.8544 -7.1250 0.0000 -0.0000 -14.3525 39.7724 1.8945 0.0000 -0.0000 0.0000 76.6882 -20.6663 35.8890 -25.5423 36.7532 -8.6123 0.0000 -0.0000 -3.4154 -4.3795 -15.8849 1.2008 7.1250 -0.0000 -0.0000 21.4593 -44.7675 0.1293
0.00 0.00 0.00 -35.4714 82.0237 -29.6219 0.0000 0.0000 0.0000 -5.6873 -8.7646 -27.0808 10.1295 17.4820 59.9202 -2.0078 -32.2231 -11.1497 0.2126 -2.9685 -8.1910 0.0000 0.0000 0.0000 26.1036 14.2349 0.2783 -2.2103 -9.2910 26.7100 -1.2923 14.7418 -21.3819 -0.0029 0.3497 -0.9610 5.0119 1.3601 17.9498 4.5088 3.3010 4.1253 1.2214 1.6895 -5.6095 13.4209 1.2229 -0.3771 -15.9435 1.4795 -2.3389 -7.0954 0.7819 -0.3798 0.0000 -0.0000 0.0000 -75.6501 28.5362 39.2808 28.0354 -39.1488 -10.1460 -0.0000 -0.0000 5.5000 -10.8517 8.2584 -1.5772 -7.1250 0.0000 -0.0000 -30.9628 36.4408 7.4276 0.0000 -0.0000 0.0000 77.1752 -15.9772 30.9620 -25.0779 36.2835 -8.3360 0.0000 0.0000 0.6641 -18.3843 -19.8994 6.4540 7.1250 -0.0000 -0.0000 10.0265 -50.5903 -1.3934
0.00 0.00 0.00 -40.8306 83.6558 -31.9583 0.0000 0.0000 0.0000 -5.3957 -15.9849 -33.2997 3.6476 11.6760 34.5953 -0.0688 -21.9513 -14.9431 0.1856 -2.7750 -7.6530 0.0000 0.0000 0.0000 24.6094 7.7974 10.5467 -0.2725 -3.3581 9.2773 0.1622 13.8855 -7.6586 -0.0605 1.5877 -4.3676 3.9624 2.5217 17.4305 2.0317 4.3607 3.6394 -1.0390 2.1623 -5.7112 8.9893 0.1342 1.2403 -9.7828 -0.1506 -9.9404 -4.4684 0.0474 -3.1407 0.0000 -0.0000 0.0000 -70.5552 33.7730 40.3244 31.4113 -42.0728 -12.3446 -0.0000 0.0000 -0.6674 -17.5721 13.1823 -4.1307 -7.1250 0.0000 -0.0000 -37.9691 39.9723 5.6928 0.0000 -0.0000 0.0000 77.0979 -18.1026 33.3100 -30.9414 41.6868 -12.0308 0.0000 -0.0000 -8.4975 -13.5544 -15.0410 3.5800 7.1250 -0.0000 -0.0000 13.0204 -45.0249 -0.0082
0.00 0.00 0.00 -39.6669 81.3681 -31.6627 0.0000 0.0000 0.0000 -6.0029 -15.7467 -33.0799 3.8005 11.8900 35.3441 -0.4053 -18.8803 -9.3660 0.0095 -0.6296 -1.7303 0.0000 0.0000 0.0000 24.8759 6.4903 12.9099 -1.1569 -6.8287 19.2088 0.8807 16.4897 3.8212 -0.0816 1.8432 -5.0724 0.6045 3.2703 17.6854 -0.8938 4.5675 4.5242 -2.2738 2.3281 -4.9049 5.6612 -0.8610 1.3951 -1.7603 -0.7603 -15.0360 -1.4566 -0.4521 -4.7730 -0.0000 0.0000 0.0000 -68.3463 31.5438 36.5982 31.4375 -42.0941 -12.3621 -0.0000 0.0000 -4.4459 -12.3309 12.2467 -2.6549 -7.1250 0.0000 -0.0000 -33.6670 39.7563 5.0332 -0.0000 0.0000 0.0000 77.9745 -16.6227 36.8518 -30.4291 41.2584 -11.6916 0.0000 -0.0000 -8.2577 -10.1842 -15.7416 2.7902 7.1250 -0.0000 -0.0000 16.2693 -45.3127 -0.1290
